<svg width="485.55000000000007" height="75.70506620487004" viewBox="0 0 350 54.57063777510969" class="looka-1j8o68f">
  <defs id="SvgjsDefs6696"></defs>
  <g id="SvgjsG6697" featurekey="dVtZHI-0"
    transform="matrix(3.4626030921936035,0,0,3.4626030921936035,0.00006769500936729102,-14.681436060322925)"
    fill="#ffffff">
    <path
      d="M5.86 4.5 l-0.000019531 -0.26 l-5.86 0 l0 0.64 l3.38 0 l0 15.12 l0.7 0 l0 -15.12 l1.8 0 c-0.02666 -0.21334 -0.03332 -0.34 -0.01998 -0.38 z M6.38 4.24 l0 0.64 l1.1 0 l0 -0.64 l-1.1 0 z M10.64 14.16 l0 -9.36 l4.8 0 l0 -0.56 l-5.36 0 l0 9.92 l0.56 0 z M15.64 20 l0 -0.54 l-5 0 l0 -4.14 l0.8 0 l0 -0.54 l-1.36 0 l0 5.22 l5.56 0 z M24.740000000000002 18.66 l0.6 1.34 l0.84 0 l-0.6 -1.34 l-0.84 0 z M18.860000000000003 18.64 l-0.6 1.36 l0.8 0 l0.6 -1.34 l-0.42 0 z M20.28 5.460000000000001 l-0.52 -1.22 l-0.84 0 l0.54 1.24 l0.4 0 z M25 5.460000000000001 l0.52 -1.22 l-0.8 0 l-0.54 1.2 c0.12 0 0.26 0.0033398 0.42 0.01 s0.29334 0.01 0.4 0.01 z M34.64 4.5 l-0.000019531 -0.26 l-5.86 0 l0 0.64 l3.38 0 l0 15.12 l0.7 0 l0 -15.12 l1.8 0 c-0.02666 -0.21334 -0.03332 -0.34 -0.01998 -0.38 z M35.160000000000004 4.24 l0 0.64 l1.1 0 l0 -0.64 l-1.1 0 z M48.26 15.219999999999999 c0.85334 -0.48 1.5067 -1.1567 1.96 -2.03 s0.68 -1.8633 0.68 -2.97 l0 -0.28 c0 -1.64 -0.49 -3 -1.47 -4.08 s-2.3766 -1.62 -4.19 -1.62 l-1.38 0 l0 6.34 c0.22666 0.01334 0.45332 0.02 0.67998 0.02 l0 -5.72 l0.66 0 c1.64 0 2.88 0.47666 3.72 1.43 s1.26 2.1766 1.26 3.67 l0 0.22 c0 1.48 -0.42 2.6934 -1.26 3.64 s-2.08 1.42 -3.72 1.42 l-0.66 0 l0 0 l-0.68 0 l0 0.64 c0.4 0.01334 0.66666 0.02 0.8 0.02 l0.58 0 c0.92 0 1.7267 -0.14 2.42 -0.42 l2.48 4.5 l0.8 0 z M54.1 14.16 l0 -9.36 l4.8 0 l0 -0.56 l-5.36 0 l0 9.92 l0.56 0 z M59.1 20 l0 -0.54 l-5 0 l0 -4.14 l0.8 0 l0 -0.54 l-1.36 0 l0 5.22 l5.56 0 z M70.14 4.24 c-0.92 3.1066 -1.6533 5.59 -2.2 7.45 s-1.0467 3.5666 -1.5 5.12 s-0.68 2.3434 -0.68 2.37 l0.24 0.82 l0.16 0 l4.8 -15.76 l-0.82 0 z M65.44 14.68 l-2.86 -10.44 l-0.88 0 l3.34 12.28 z M74.12 14.16 l0 -9.36 l4.8 0 l0 -0.56 l-5.36 0 l0 9.92 l0.56 0 z M79.12 20 l0 -0.54 l-5 0 l0 -4.14 l0.8 0 l0 -0.54 l-1.36 0 l0 5.22 l5.56 0 z M87.06 6.140000000000001 c0 0.08 0.23666 0.84334 0.71 2.29 s0.99 3.03 1.55 4.75 s1.3133 3.9934 2.26 6.82 l0.86 0 l-5.3 -15.76 l-0.16 0 l-5.26 15.76 l0.82 0 z M86.7 15.52 l-0.72 0 l1.2 4.48 l0.72 0 z M95.69999999999999 16.06 l0 -11.82 l-0.66 0 l0 11.82 l0.66 0 z M101.08 20 l0 -0.68 l-5.38 0 l0 -1.96 l-0.66 0 l0 2.64 l6.04 0 z">
    </path>
  </g>
</svg>